<svg width="58" height="58" viewBox="0 0 58 58" fill="none" xmlns="http://www.w3.org/2000/svg">
<path d="M31.1748 40.6631H33.0598C34.9448 40.6631 36.5108 38.9811 36.5108 36.9512C36.5108 34.4282 35.6118 33.9352 34.1328 33.4132L31.2038 32.3982V40.6631H31.1748Z" fill="#4ECB71"/>
<path d="M28.913 4.86712e-05C12.9051 0.0580482 -0.0578057 13.0789 0.000193873 29.087C0.0581934 45.0948 13.0791 58.0577 29.087 57.9997C45.0949 57.9417 58.0578 44.9208 57.9998 28.913C57.9418 12.9049 44.9209 -0.0289511 28.913 4.86712e-05ZM35.554 29.29C37.816 30.0729 40.8609 31.7549 40.8609 36.9459C40.8609 41.4119 37.352 45.0078 33.06 45.0078H31.175V46.6898C31.175 47.8788 30.189 48.8648 29 48.8648C27.8111 48.8648 26.8251 47.8788 26.8251 46.6898V45.0078H25.7811C21.025 45.0078 17.1681 41.0059 17.1681 36.0759C17.1681 34.8869 18.154 33.9009 19.343 33.9009C20.532 33.9009 21.518 34.8869 21.518 36.0759C21.518 38.5989 23.4321 40.6579 25.7811 40.6579H26.8251V30.8559L22.446 29.29C20.184 28.507 17.1391 26.825 17.1391 21.6339C17.1391 17.1679 20.648 13.5719 24.9401 13.5719H26.8251V11.89C26.8251 10.701 27.8111 9.71497 29 9.71497C30.189 9.71497 31.175 10.701 31.175 11.89V13.5719H32.219C36.975 13.5719 40.8319 17.5739 40.8319 22.5039C40.8319 23.693 39.846 24.679 38.657 24.679C37.468 24.679 36.482 23.693 36.482 22.5039C36.482 19.9809 34.568 17.9219 32.219 17.9219H31.175V27.724L35.554 29.29Z" fill="#4ECB71"/>
<path d="M21.5234 21.6619C21.5234 24.1848 22.4224 24.6778 23.9015 25.1998L26.8305 26.2148V17.9209H24.9455C23.0604 17.9209 21.5234 19.6029 21.5234 21.6619Z" fill="#4ECB71"/>
</svg>
