<svg width="58" height="67" viewBox="0 0 58 67" fill="none" xmlns="http://www.w3.org/2000/svg">
<path d="M29 8.85864C13.0115 8.85864 0 21.8702 0 37.8585C0 53.8469 13.0115 66.8919 29 66.8919C44.9885 66.8919 58 53.8804 58 37.8919C58 21.9036 44.9885 8.85864 29 8.85864ZM31.5087 36.7881C31.5087 38.1595 30.3714 39.2968 29 39.2968C27.6286 39.2968 26.4914 38.1595 26.4914 36.7881V20.0639C26.4914 18.6925 27.6286 17.5553 29 17.5553C30.3714 17.5553 31.5087 18.6925 31.5087 20.0639V36.7881Z" fill="#4ECB71"/>
<path d="M38.6683 4.85005H19.3351C17.9971 4.85005 16.9268 3.7797 16.9268 2.44175C16.9268 1.10381 17.9971 0 19.3351 0H38.6683C40.0063 0 41.0766 1.07036 41.0766 2.4083C41.0766 3.74625 40.0063 4.85005 38.6683 4.85005Z" fill="#4ECB71"/>
</svg>
