<svg width="58" height="58" viewBox="0 0 58 58" fill="none" xmlns="http://www.w3.org/2000/svg">
<path d="M29 0C13.021 0 0 13.021 0 29C0 44.979 13.021 58 29 58C44.979 58 58 44.979 58 29C58 13.021 44.979 0 29 0ZM41.615 39.353C41.209 40.049 40.484 40.426 39.73 40.426C39.353 40.426 38.976 40.339 38.628 40.107L29.638 34.742C27.405 33.408 25.752 30.479 25.752 27.898V16.008C25.752 14.819 26.738 13.833 27.927 13.833C29.116 13.833 30.102 14.819 30.102 16.008V27.898C30.102 28.942 30.972 30.479 31.871 31.001L40.861 36.366C41.905 36.975 42.253 38.309 41.615 39.353Z" fill="#4ECB71"/>
</svg>
