<svg width="58" height="58" viewBox="0 0 58 58" fill="none" xmlns="http://www.w3.org/2000/svg">
<path d="M29 0C12.992 0 0 12.992 0 29C0 45.008 12.992 58 29 58C45.008 58 58 45.008 58 29C58 12.992 45.008 0 29 0ZM19.517 16.414C21.866 16.414 23.809 18.328 23.809 20.706C23.809 23.055 21.895 24.998 19.517 24.998C17.168 24.998 15.225 23.084 15.225 20.706C15.225 18.328 17.139 16.414 19.517 16.414ZM19.865 40.02C19.43 40.455 18.879 40.658 18.328 40.658C17.777 40.658 17.226 40.455 16.791 40.02C15.95 39.179 15.95 37.787 16.791 36.946L35.786 17.951C36.627 17.11 38.019 17.11 38.86 17.951C39.701 18.792 39.701 20.184 38.86 21.025L19.865 40.02ZM38.483 41.586C36.134 41.586 34.191 39.672 34.191 37.294C34.191 34.945 36.105 33.002 38.483 33.002C40.832 33.002 42.775 34.916 42.775 37.294C42.775 39.672 40.861 41.586 38.483 41.586Z" fill="#4ECB71"/>
</svg>
