<svg width="37" height="229" viewBox="0 0 37 229" fill="none" xmlns="http://www.w3.org/2000/svg">
<g clip-path="url(#clip0_347_663)">
<path opacity="0.4" d="M18.5 37C28.7172 37 37 28.7172 37 18.5C37 8.28273 28.7172 0 18.5 0C8.28273 0 0 8.28273 0 18.5C0 28.7172 8.28273 37 18.5 37Z" fill="#292D32"/>
<path d="M15.8724 25.1232C15.5024 25.1232 15.1509 24.9752 14.8919 24.7162L9.65628 19.4807C9.11978 18.9442 9.11978 18.0562 9.65628 17.5197C10.1928 16.9832 11.0808 16.9832 11.6173 17.5197L15.8724 21.7747L25.3814 12.2657C25.9179 11.7292 26.8059 11.7292 27.3424 12.2657C27.8789 12.8022 27.8789 13.6902 27.3424 14.2267L16.8529 24.7162C16.5939 24.9752 16.2424 25.1232 15.8724 25.1232Z" fill="#292D32"/>
<path opacity="0.4" d="M18.5 101C28.7172 101 37 92.7172 37 82.5C37 72.2827 28.7172 64 18.5 64C8.28273 64 0 72.2827 0 82.5C0 92.7172 8.28273 101 18.5 101Z" fill="#292D32"/>
<path d="M15.8724 89.1232C15.5024 89.1232 15.1509 88.9752 14.8919 88.7162L9.65628 83.4807C9.11978 82.9442 9.11978 82.0562 9.65628 81.5197C10.1928 80.9832 11.0808 80.9832 11.6173 81.5197L15.8724 85.7747L25.3814 76.2657C25.9179 75.7292 26.8059 75.7292 27.3424 76.2657C27.8789 76.8022 27.8789 77.6902 27.3424 78.2267L16.8529 88.7162C16.5939 88.9752 16.2424 89.1232 15.8724 89.1232Z" fill="#292D32"/>
<path opacity="0.4" d="M18.5 165C28.7172 165 37 156.717 37 146.5C37 136.283 28.7172 128 18.5 128C8.28273 128 0 136.283 0 146.5C0 156.717 8.28273 165 18.5 165Z" fill="#292D32"/>
<path d="M15.8724 153.123C15.5024 153.123 15.1509 152.975 14.8919 152.716L9.65628 147.481C9.11978 146.944 9.11978 146.056 9.65628 145.52C10.1928 144.983 11.0808 144.983 11.6173 145.52L15.8724 149.775L25.3814 140.266C25.9179 139.729 26.8059 139.729 27.3424 140.266C27.8789 140.802 27.8789 141.69 27.3424 142.227L16.8529 152.716C16.5939 152.975 16.2424 153.123 15.8724 153.123Z" fill="#292D32"/>
<path opacity="0.4" d="M18.5 229C28.7172 229 37 220.717 37 210.5C37 200.283 28.7172 192 18.5 192C8.28273 192 0 200.283 0 210.5C0 220.717 8.28273 229 18.5 229Z" fill="#292D32"/>
<path d="M15.8724 217.123C15.5024 217.123 15.1509 216.975 14.8919 216.716L9.65628 211.481C9.11978 210.944 9.11978 210.056 9.65628 209.52C10.1928 208.983 11.0808 208.983 11.6173 209.52L15.8724 213.775L25.3814 204.266C25.9179 203.729 26.8059 203.729 27.3424 204.266C27.8789 204.802 27.8789 205.69 27.3424 206.227L16.8529 216.716C16.5939 216.975 16.2424 217.123 15.8724 217.123Z" fill="#292D32"/>
</g>
<defs>
<clipPath id="clip0_347_663">
<rect width="37" height="229" fill="white"/>
</clipPath>
</defs>
</svg>
