<svg width="37" height="226" viewBox="0 0 37 226" fill="none" xmlns="http://www.w3.org/2000/svg">
<path opacity="0.4" d="M18.5 37C28.7172 37 37 28.7172 37 18.5C37 8.28273 28.7172 0 18.5 0C8.28273 0 0 8.28273 0 18.5C0 28.7172 8.28273 37 18.5 37Z" fill="#292D32"/>
<path d="M15.8724 25.1232C15.5024 25.1232 15.1509 24.9752 14.8919 24.7162L9.65628 19.4807C9.11978 18.9442 9.11978 18.0562 9.65628 17.5197C10.1928 16.9832 11.0808 16.9832 11.6173 17.5197L15.8724 21.7747L25.3814 12.2657C25.9179 11.7292 26.8059 11.7292 27.3424 12.2657C27.8789 12.8022 27.8789 13.6902 27.3424 14.2267L16.8529 24.7162C16.5939 24.9752 16.2424 25.1232 15.8724 25.1232Z" fill="#292D32"/>
<path opacity="0.4" d="M18.5 100C28.7172 100 37 91.7172 37 81.5C37 71.2827 28.7172 63 18.5 63C8.28273 63 0 71.2827 0 81.5C0 91.7172 8.28273 100 18.5 100Z" fill="#292D32"/>
<path d="M15.8724 88.1232C15.5024 88.1232 15.1509 87.9752 14.8919 87.7162L9.65628 82.4807C9.11978 81.9442 9.11978 81.0562 9.65628 80.5197C10.1928 79.9832 11.0808 79.9832 11.6173 80.5197L15.8724 84.7747L25.3814 75.2657C25.9179 74.7292 26.8059 74.7292 27.3424 75.2657C27.8789 75.8022 27.8789 76.6902 27.3424 77.2267L16.8529 87.7162C16.5939 87.9752 16.2424 88.1232 15.8724 88.1232Z" fill="#292D32"/>
<path opacity="0.4" d="M18.5 163C28.7172 163 37 154.717 37 144.5C37 134.283 28.7172 126 18.5 126C8.28273 126 0 134.283 0 144.5C0 154.717 8.28273 163 18.5 163Z" fill="#292D32"/>
<path d="M15.8724 151.123C15.5024 151.123 15.1509 150.975 14.8919 150.716L9.65628 145.481C9.11978 144.944 9.11978 144.056 9.65628 143.52C10.1928 142.983 11.0808 142.983 11.6173 143.52L15.8724 147.775L25.3814 138.266C25.9179 137.729 26.8059 137.729 27.3424 138.266C27.8789 138.802 27.8789 139.69 27.3424 140.227L16.8529 150.716C16.5939 150.975 16.2424 151.123 15.8724 151.123Z" fill="#292D32"/>
<path opacity="0.4" d="M18.5 226C28.7172 226 37 217.717 37 207.5C37 197.283 28.7172 189 18.5 189C8.28273 189 0 197.283 0 207.5C0 217.717 8.28273 226 18.5 226Z" fill="#292D32"/>
<path d="M15.8724 214.123C15.5024 214.123 15.1509 213.975 14.8919 213.716L9.65628 208.481C9.11978 207.944 9.11978 207.056 9.65628 206.52C10.1928 205.983 11.0808 205.983 11.6173 206.52L15.8724 210.775L25.3814 201.266C25.9179 200.729 26.8059 200.729 27.3424 201.266C27.8789 201.802 27.8789 202.69 27.3424 203.227L16.8529 213.716C16.5939 213.975 16.2424 214.123 15.8724 214.123Z" fill="#292D32"/>
</svg>
