<svg width="49" height="52" viewBox="0 0 49 52" fill="none" xmlns="http://www.w3.org/2000/svg">
<path fill-rule="evenodd" clip-rule="evenodd" d="M17.0507 15.6883C18.9419 12.5512 22.2318 10.4715 25.9764 10.4715C31.6218 10.4715 36.2388 15.1981 36.5808 21.166C36.6934 21.1614 36.8066 21.1591 36.9203 21.1591C41.7807 21.1591 45.7209 25.3889 45.7209 30.6067C45.7209 35.8244 41.7807 40.0542 36.9203 40.0542L14.1206 40.0542C7.74911 40.0542 2.58398 34.5094 2.58398 27.6696C2.58398 20.8298 7.74911 15.285 14.1206 15.285C15.1316 15.285 16.1139 15.425 17.0507 15.6883ZM30.3433 26.8553C29.8242 27.552 28.8772 27.6649 28.2283 27.1076L25.6572 24.8995V32.3077C25.6572 33.1999 24.9835 33.9231 24.1524 33.9231C23.3214 33.9231 22.6477 33.1999 22.6477 32.3077V24.8994L20.0765 27.1076C19.4275 27.6649 18.4806 27.552 17.9614 26.8553C17.4423 26.1586 17.5475 25.1421 18.1964 24.5848L23.207 20.2817C23.4623 20.0601 23.7865 19.9263 24.1398 19.9232L24.1524 19.9231L24.1573 19.9231C24.5167 19.9243 24.8464 20.0608 25.1046 20.2875L30.1083 24.5848C30.7573 25.1421 30.8625 26.1586 30.3433 26.8553Z" fill="#575A65"/>
</svg>
