<svg width="49" height="52" viewBox="0 0 49 52" fill="none" xmlns="http://www.w3.org/2000/svg">
<path fill-rule="evenodd" clip-rule="evenodd" d="M17.0507 15.6883C18.9419 12.5512 22.2318 10.4714 25.9764 10.4714C31.6218 10.4714 36.2388 15.1981 36.5808 21.166C36.6934 21.1614 36.8066 21.159 36.9203 21.159C41.7807 21.159 45.7209 25.3889 45.7209 30.6066C45.7209 35.8243 41.7807 40.0541 36.9203 40.0541L14.1206 40.0541C7.74911 40.0541 2.58398 34.5094 2.58398 27.6695C2.58398 20.8297 7.74911 15.2849 14.1206 15.2849C15.1316 15.2849 16.1139 15.4249 17.0507 15.6883ZM30.3433 26.8552C29.8242 27.5519 28.8772 27.6648 28.2283 27.1075L25.6572 24.8995V32.3077C25.6572 33.1998 24.9835 33.923 24.1524 33.923C23.3214 33.923 22.6477 33.1998 22.6477 32.3077V24.8994L20.0765 27.1075C19.4275 27.6648 18.4806 27.5519 17.9614 26.8552C17.4423 26.1586 17.5475 25.142 18.1964 24.5847L23.207 20.2816C23.4623 20.06 23.7865 19.9262 24.1398 19.9231L24.1524 19.923L24.1573 19.923C24.5167 19.9243 24.8464 20.0607 25.1046 20.2875L30.1083 24.5847C30.7573 25.142 30.8625 26.1586 30.3433 26.8552Z" fill="#575A65"/>
</svg>
