<svg width="42" height="52" viewBox="0 0 42 52" fill="none" xmlns="http://www.w3.org/2000/svg">
<path fill-rule="evenodd" clip-rule="evenodd" d="M14.8057 15.7817C16.4553 12.6259 19.3248 10.5338 22.5909 10.5338C27.5149 10.5338 31.542 15.2886 31.8402 21.292C31.9385 21.2874 32.0372 21.285 32.1364 21.285C36.3758 21.285 39.8125 25.54 39.8125 30.7888C39.8125 36.0376 36.3758 40.2926 32.1364 40.2926L12.25 40.2926C6.69263 40.2926 2.1875 34.7148 2.1875 27.8343C2.1875 20.9537 6.69263 15.3759 12.25 15.3759C13.1318 15.3759 13.9886 15.5168 14.8057 15.7817ZM26.3998 27.0151C25.947 27.7159 25.1211 27.8296 24.555 27.2689L22.3125 25.0477V32.5C22.3125 33.3975 21.7249 34.125 21 34.125C20.2751 34.125 19.6875 33.3975 19.6875 32.5V25.0476L17.4449 27.2689C16.8788 27.8296 16.0529 27.7159 15.6001 27.0151C15.1472 26.3143 15.239 25.2917 15.805 24.7311L20.1753 20.4024C20.398 20.1795 20.6808 20.0449 20.9889 20.0417L21 20.0417L21.0042 20.0417C21.3177 20.0429 21.6052 20.1802 21.8305 20.4083L26.1949 24.7311C26.7609 25.2917 26.8527 26.3143 26.3998 27.0151Z" fill="#575A65"/>
</svg>
